<svg xmlns="http://www.w3.org/2000/svg" version="1.1" xmlns:xlink="http://www.w3.org/1999/xlink" xmlns:svgjs="http://svgjs.dev/svgjs" viewBox="0 0 1920 1080"><rect width="1920" height="1080" fill="#42af83"></rect><g transform="matrix(1.15,0,0,1.15,-138.3154186248778,-81)"><path d="M0,-1080C-7.921111671809136,-977.0658429872682,-61.125112910411865,-650.7520141325367,-47.52667003085482,-462.3950579236093C-33.92822715129777,-274.03810171468183,82.4450864942473,-120.45291235219179,81.59065727734227,50.141737253564884C80.73622806043724,220.73638685932156,-28.418749831070535,402.78926922511243,-52.65324533228503,561.1728397109307C-76.88774083349952,719.556410196749,-84.48227547764158,820.1653533468642,-63.81631572994472,1000.4431601684744C-43.15035598224786,1180.7209669900844,60.70646053223865,1449.5802073353375,71.3425131538961,1642.8396806405917C81.97856577555356,1836.099153945846,11.890418858982684,2073.8066134400988,0,2160L 1920 2160 L 1920 -1080 Z" fill="url(&quot;#SvgjsLinearGradient1267&quot;)"></path><path d="M384,-1080C391.7822260964208,-1008.2610073923179,438.95898720922355,-806.469485195768,430.6933565785247,-649.5660443539073C422.4277259478258,-492.66260351204653,346.97287179770996,-308.259459633736,334.40621621580686,-138.57935494883526C321.8395606339038,31.100749736065524,344.7036501360656,215.38177023675613,355.293423087106,368.51458375549737C365.8831960381464,521.6473972742386,406.3812573304069,624.0784538487034,397.9448539220493,780.2175261636122C389.5084505136916,936.356598478521,302.6945694760882,1157.4209544348182,304.67500263696013,1305.3490176449504C306.65543579783207,1453.2770808550827,396.6066199934408,1525.3440750318966,409.8274528872808,1667.785905424405C423.0482857811208,1810.2277358169133,388.3045754812135,2077.9643175707342,384,2160L 1920 2160 L 1920 -1080 Z" fill="url(&quot;#SvgjsLinearGradient1268&quot;)"></path><path d="M768,-1080C766.1174985827582,-985.6788505187997,769.900141900912,-742.5083274897174,756.7049914965495,-514.0731031127979C743.509841092187,-285.6378787358783,682.4861690749034,60.886911094260796,688.8290975738252,290.6113462615177C695.1720260727469,520.3357814287747,773.2710543492341,665.7089898979636,794.7625624900802,864.2735078907436C816.2540706309263,1062.8380258835236,822.238573500582,1266.0440388666552,817.778146418902,1481.998454218198C813.317719337222,1697.9528695697409,776.2963577364836,2046.9997423696996,768,2160L 1920 2160 L 1920 -1080 Z" fill="url(&quot;#SvgjsLinearGradient1269&quot;)"></path><path d="M1152,-1080C1159.454796519597,-953.6233586208515,1191.270832872373,-580.4600423949387,1196.7287791175827,-321.74015172510883C1202.1867253627925,-63.020261055279036,1183.4916057248522,181.39295630579238,1184.747677471259,472.319344018979C1186.003749217666,763.2457317321656,1209.7231558412336,1142.5380652238407,1204.2652095960239,1423.818174554011C1198.807263350814,1705.0982838841812,1160.710868266004,2037.3030290923352,1152,2160L 1920 2160 L 1920 -1080 Z" fill="url(&quot;#SvgjsLinearGradient1270&quot;)"></path><path d="M1536,-1080C1535.3533953827407,-963.6938802686641,1521.1700938469364,-611.3616739490715,1532.1203722964444,-382.1632816119842C1543.0706507459524,-152.96488927489688,1608.1913137421311,89.33214440095182,1601.7016706970478,295.1903540225238C1595.2120276519645,501.0485636440958,1501.1429683993144,657.3464990258791,1493.1825140259439,852.9859761174478C1485.2220596525733,1048.6254532090165,1546.8026967944818,1251.191545924844,1553.9389444568244,1469.027216571936C1561.075192119167,1686.862887219028,1538.9898240761374,2044.837869428656,1536,2160L 1920 2160 L 1920 -1080 Z" fill="url(&quot;#SvgjsLinearGradient1271&quot;)"></path></g><defs><linearGradient x1="0.1" y1="0" x2="0" y2="1" id="SvgjsLinearGradient1267"><stop stop-color="#42af83" offset="0"></stop><stop stop-color="#42af71" offset="0"></stop></linearGradient><linearGradient x1="0.1" y1="0" x2="0" y2="1" id="SvgjsLinearGradient1268"><stop stop-color="#5ec29a" offset="0"></stop><stop stop-color="#5ec289" offset="0.2"></stop></linearGradient><linearGradient x1="0.1" y1="0" x2="0" y2="1" id="SvgjsLinearGradient1269"><stop stop-color="#80cfaf" offset="0"></stop><stop stop-color="#80cfa2" offset="0.4"></stop></linearGradient><linearGradient x1="0.1" y1="0" x2="0" y2="1" id="SvgjsLinearGradient1270"><stop stop-color="#a2dcc5" offset="0"></stop><stop stop-color="#a2dcbb" offset="0.6"></stop></linearGradient><linearGradient x1="0.1" y1="0" x2="0" y2="1" id="SvgjsLinearGradient1271"><stop stop-color="#c4e9da" offset="0"></stop><stop stop-color="#c4e9d4" offset="0.8"></stop></linearGradient></defs></svg>